<svg xmlns="http://www.w3.org/2000/svg" xmlns:xlink="http://www.w3.org/1999/xlink" width="226" height="31" viewBox="0 0 226 31" fill="none"><g opacity="1" transform="translate(0 0)  rotate(0 112.5 15)"><path id="&#x6587;&#x672C; 1" fill-rule="evenodd" style="fill:#01599B" transform="translate(0 0)  rotate(0 112.5 8.323699421965317)" opacity="1" d="M2.18 14.99L0 14.99L0 16.64L18.55 16.64L18.55 14.99L6.85 14.99L6.85 4.16L18.55 4.16L18.55 2.51L6.85 2.51L6.85 0L2.18 0L2.18 14.99ZM20.64 0L24.84 0.87L24.84 2.51L20.64 1.65L20.64 0ZM39.19 2.51L27.02 2.51C25.56 2.6 25.64 0.87 25.64 0.87L25.64 0L29.52 0C29.35 1.04 30.4 0.87 30.4 0.87L39.19 0.87L39.19 2.51ZM44.35 0L41.29 0L41.29 0.87C41.29 0.87 41.21 2.6 42.82 2.51L44.92 2.51L41.29 16.64L45.89 16.64L49.35 2.51L55.64 2.51L55.64 8.14L49.52 7.02L49.52 8.75L55.64 9.88L55.64 14.12C55.64 14.12 55.89 15.16 54.84 14.99L51.29 14.99L51.29 16.64L58.31 16.64C58.31 16.64 59.92 16.72 59.84 14.99L59.84 0.87L49.76 0.87L49.92 0L45.48 0L45.32 0.87L45.16 0.87C45.16 0.87 44.19 1.04 44.35 0ZM61.93 10.48L65.97 10.48L67.26 9.18L75.16 9.18L76.45 10.48L80.48 10.48L79.19 9.18L80.48 9.18L80.48 7.54L79.68 7.54L79.68 2.51L80.48 2.51L80.48 0.87L79.68 0.87L79.68 0L75.81 0L75.81 0.87L66.53 0.87L66.53 0L62.66 0L62.66 0.87L61.93 0.87L61.93 2.51L62.66 2.51L62.66 7.54L61.93 7.54L61.93 9.18L63.23 9.18L61.93 10.48ZM89.35 6.67L92.58 6.67L92.58 8.32L89.35 8.32L89.35 14.82C89.52 16.81 87.82 16.64 87.82 16.64L85.89 16.64L85.89 8.32L82.58 8.32L82.58 6.67L85.89 6.67L85.89 5.81L82.58 5.81L82.58 4.16L83.31 4.16L82.9 2.51L82.58 2.51L82.58 0.87L85.89 0.87L85.64 0L89.11 0L89.35 0.87L92.58 0.87L92.58 2.51L92.26 2.51L91.85 4.16L92.58 4.16L92.58 5.81L89.35 5.81L89.35 6.67ZM101.13 3.38L96.53 3.38L96.53 1.65L99.6 1.65C99.6 1.65 101.13 1.65 101.13 0L92.98 0L92.98 16.64L94.92 16.64C94.92 16.64 96.69 16.81 96.53 14.99L96.53 5.03L97.74 5.03L97.74 16.64L100.89 16.64L100.89 5.03L101.13 5.03L101.13 3.38ZM107.02 2.69C107.1 2.77 107.5 2.77 107.5 2.77L109.68 2.77L109.68 0.09L113.31 0.09L113.31 4.51L104.35 4.51C103.47 4.51 103.31 4.16 103.31 4.16C103.14 3.99 103.39 2.95 103.39 2.95L104.11 0L107.58 0L107.02 2.25C106.93 2.6 107.02 2.69 107.02 2.69ZM117.82 1.04L117.82 0L113.87 0L113.87 5.03C113.87 5.03 113.87 6.84 115.48 6.67L121.77 6.67L121.77 5.03L118.55 5.03C118.55 5.03 117.74 5.11 117.82 4.16L117.82 2.69L121.77 2.25L121.77 0.61L117.82 1.04ZM128.06 2.43L128.06 0.78L123.87 0L123.87 1.65L128.06 2.43ZM131.93 14.99C132.01 16.72 130.4 16.64 130.4 16.64L128.71 16.64L128.71 0L142.42 0L142.42 1.65L131.93 1.65L131.93 14.99ZM149.51 12.48L149.51 16.64L145.24 16.64L145.24 5.46L144.51 5.46L145.56 2.51L144.51 2.51L144.51 0.87L146.13 0.87L146.45 0L150.72 0L150.4 0.87L163.06 0.87L163.06 2.51L149.84 2.51L149.35 3.73L163.06 3.73L163.06 14.99C163.22 16.81 161.53 16.64 161.53 16.64L158.79 16.64L158.79 12.48L149.51 12.48ZM165.16 0L171.53 0L171.53 1.65L171.21 4.16L171.61 4.16L171.61 14.12C171.69 15.94 170.08 15.86 170.08 15.86L169.11 15.86L169.11 4.16L168.71 4.16L169.11 1.65L168.22 1.65L168.22 16.64L165.16 16.64L165.16 0ZM177.5 14.99L177.5 16.64L173.63 16.64C172.01 16.72 172.1 14.99 172.1 14.99L172.1 0L183.71 0L183.71 5.03C183.79 6.76 182.18 6.67 182.18 6.67L175.56 6.67L175.56 14.12C175.4 15.16 176.37 14.99 176.37 14.99L177.5 14.99ZM189.68 8.23L185.8 8.23L187.66 1.65L187.66 0L202.09 0L202.5 1.65L204.35 8.23L200.4 8.23L198.47 1.65L191.69 1.65L189.68 8.23ZM225 14.99C225.08 16.72 222.9 16.64 222.9 16.64L220.72 16.64L220.72 1.65L206.45 1.65L206.45 0L225 0L225 14.99ZM180.64 2.51L180.64 1.65L175.56 1.65L175.56 2.51L180.64 2.51ZM142.42 2.51L136.69 2.51L137.01 1.99L133.95 1.99L133.63 2.51L132.34 2.51L132.34 9.53L135.89 9.53L135.89 16.64L137.34 16.64C137.34 16.64 139.27 16.72 139.11 14.9L139.11 9.53L140.97 9.53C140.97 9.53 142.58 9.7 142.42 7.88L142.42 2.51ZM75.81 3.29L75.81 2.51L66.53 2.51L66.53 3.29L75.81 3.29ZM89.52 2.51L89.11 4.16L86.05 4.16L85.64 2.51L89.52 2.51ZM206.45 2.51L219.59 2.51L219.59 4.16L206.45 4.16L206.45 2.51ZM20.64 2.95L24.84 3.73L24.84 5.37L20.64 4.59L20.64 2.95ZM123.87 4.59L123.87 2.95L128.06 3.73L128.06 5.37L123.87 4.59ZM38.79 14.12L38.79 8.4L39.19 8.4L39.19 6.67L38.79 6.67L38.79 3.38L26.05 3.38L26.05 6.67L25.64 6.67L25.64 8.4L26.05 8.4L26.05 15.86L34.92 15.86L34.92 16.64L37.26 16.64C37.26 16.64 38.55 16.72 38.71 15.86L39.19 15.86L39.19 14.12L38.79 14.12ZM186.53 14.99C186.53 14.99 185.89 16.29 186.05 16.46C186.05 16.46 186.05 16.64 187.26 16.64L202.74 16.64C202.74 16.64 204.03 16.64 204.11 16.46C204.11 16.46 204.27 16.29 203.71 14.99L202.01 10.4L198.06 10.4L199.43 14.12C199.43 14.12 199.68 14.82 199.59 14.9C199.59 14.9 199.59 14.99 198.95 14.99L191.93 14.99C191.93 14.99 191.45 14.99 191.45 14.9C191.45 14.9 191.37 14.82 191.69 14.12L197.34 3.47L192.66 3.47L186.53 14.99ZM135.48 5.11L139.27 5.11L139.27 4.16L135.48 4.16L135.48 5.11ZM180.64 4.33C180.64 4.33 180.8 5.2 179.84 5.03L175.56 5.03L175.56 4.16L180.64 4.16L180.64 4.33ZM75.81 5.37L66.53 5.37L66.53 4.59L75.81 4.59L75.81 5.37ZM219.59 14.82C219.68 16.81 218.14 16.64 218.14 16.64L206.45 16.64L206.45 4.94L219.59 4.94L219.59 14.82ZM34.92 5.03L29.92 5.03L29.92 6.67L31.21 6.67L30.97 5.46L33.55 5.46L33.79 6.67L34.92 6.67L34.92 5.03ZM109.43 16.64L111.53 16.64C111.53 16.64 113.47 16.81 113.31 14.99L113.31 5.03L103.22 5.03L103.22 16.64L106.69 16.64L106.69 12.82L109.43 12.82L109.43 16.64ZM149.51 6.67L158.79 6.67L158.79 5.46L149.51 5.46L149.51 6.67ZM21.37 6.24L20.64 16.64L24.03 16.64L24.84 6.24L21.37 6.24ZM124.6 6.24L128.06 6.24L127.26 16.64L123.87 16.64L124.6 6.24ZM135.48 7.88L135.48 6.5L139.27 6.5L139.27 6.84C139.27 6.84 139.51 8.14 138.47 7.88L135.48 7.88ZM209.92 14.82L215.4 14.82C216.29 14.99 216.13 13.86 216.13 13.86L216.13 6.58L209.92 6.58L209.92 14.82ZM66.53 6.67L75.81 6.67L75.81 7.54L66.53 7.54L66.53 6.67ZM106.69 7.88L109.43 7.88L109.43 6.67L106.69 6.67L106.69 7.88ZM113.87 14.99L113.87 7.28L117.82 7.28L117.82 8.75L121.77 8.32L121.77 10.05L117.82 10.4L117.82 14.12C117.74 15.08 118.55 14.99 118.55 14.99L121.77 14.99L121.77 16.64L115.48 16.64C113.79 16.81 113.87 14.99 113.87 14.99ZM183.71 7.54L177.9 7.54C177.9 7.54 177.01 7.54 176.77 7.88C176.77 7.88 176.61 8.23 177.01 9.18L180.24 16.64L183.71 16.64L180.8 9.96C180.8 9.96 180.56 9.36 180.64 9.27C180.64 9.27 180.64 9.18 181.29 9.18L183.71 9.18L183.71 7.54ZM149.51 8.32L149.51 10.83L158.79 10.83L158.79 8.32L149.51 8.32ZM34.11 14.12L34.92 14.12L34.92 8.4L29.92 8.4L29.92 14.12L31.45 14.12L30.73 9.96L33.31 9.96L34.11 14.12ZM85.08 16.64L85.08 8.58L82.82 8.58L82.82 16.64L85.08 16.64ZM90 16.64L90 8.58L92.34 8.58L92.34 16.64L90 16.64ZM106.69 11.18L106.69 9.53L109.43 9.53L109.43 11.18L106.69 11.18ZM61.93 12.56L61.93 11.26L69.11 11.26L69.11 9.96L73.39 9.96L73.39 11.26L80.48 11.26L80.48 12.56L73.39 12.56L73.39 14.99L80.48 14.99L80.48 16.64L61.93 16.64L61.93 14.99L69.11 14.99L69.11 12.56L61.93 12.56ZM134.68 16.64L132.34 16.64L132.66 10.14L134.92 10.14L134.68 16.64ZM142.42 16.64L142.18 10.14L139.84 10.14L140.16 16.64L142.42 16.64Z"></path><path id="&#x6587;&#x672C; 1" fill-rule="evenodd" style="fill:#01599B" transform="translate(0 22.601156069364162)  rotate(0 112.5 3.699421965317919)" opacity="1" d="M76.92 6.34L76.79 6.34C76.74 6.19 76.68 6.13 76.68 6.13C76.61 6.07 76.49 6.07 76.49 6.07L71.32 6.07L71.32 5.93C71.47 5.89 71.53 5.82 71.53 5.82C71.59 5.75 71.59 5.62 71.59 5.62L71.59 0.72C71.59 0.59 71.53 0.52 71.53 0.52C71.47 0.45 71.32 0.41 71.32 0.41L71.32 0.28L76.39 0.28C76.51 0.28 76.58 0.21 76.58 0.21C76.64 0.15 76.69 0 76.69 0L76.82 0L76.82 1.5L76.69 1.5C76.64 1.35 76.58 1.29 76.58 1.29C76.51 1.23 76.39 1.23 76.39 1.23L72.83 1.23L72.83 2.6L75.14 2.6C75.26 2.6 75.33 2.55 75.33 2.55C75.39 2.49 75.44 2.33 75.44 2.33L75.57 2.33L75.57 3.8L75.44 3.8C75.39 3.65 75.33 3.59 75.33 3.59C75.26 3.53 75.14 3.53 75.14 3.53L72.83 3.53L72.83 5.11L76.49 5.11C76.61 5.11 76.68 5.05 76.68 5.05C76.74 4.99 76.79 4.84 76.79 4.84L76.92 4.84L76.92 6.34ZM106.42 6.07L106.42 5.93C106.57 5.89 106.63 5.82 106.63 5.82C106.69 5.75 106.69 5.62 106.69 5.62L106.69 0.72C106.69 0.59 106.63 0.52 106.63 0.52C106.57 0.45 106.42 0.41 106.42 0.41L106.42 0.28L111.49 0.28C111.61 0.28 111.68 0.21 111.68 0.21C111.74 0.15 111.79 0 111.79 0L111.92 0L111.92 1.5L111.79 1.5C111.74 1.35 111.68 1.29 111.68 1.29C111.61 1.23 111.49 1.23 111.49 1.23L107.93 1.23L107.93 2.6L110.24 2.6C110.36 2.6 110.43 2.55 110.43 2.55C110.49 2.49 110.54 2.33 110.54 2.33L110.67 2.33L110.67 3.8L110.54 3.8C110.49 3.65 110.43 3.59 110.43 3.59C110.36 3.53 110.24 3.53 110.24 3.53L107.93 3.53L107.93 5.11L111.59 5.11C111.71 5.11 111.78 5.05 111.78 5.05C111.84 4.99 111.89 4.84 111.89 4.84L112.02 4.84L112.02 6.34L111.89 6.34C111.84 6.19 111.78 6.13 111.78 6.13C111.71 6.07 111.59 6.07 111.59 6.07L106.42 6.07ZM131.74 3.59C131.67 3.53 131.55 3.53 131.55 3.53L129.24 3.53L129.24 5.11L132.9 5.11C133.02 5.11 133.09 5.05 133.09 5.05C133.16 4.99 133.2 4.84 133.2 4.84L133.33 4.84L133.33 6.34L133.2 6.34C133.16 6.19 133.09 6.13 133.09 6.13C133.02 6.07 132.9 6.07 132.9 6.07L127.73 6.07L127.73 5.93C127.88 5.89 127.94 5.82 127.94 5.82C128 5.75 128 5.62 128 5.62L128 0.72C128 0.59 127.94 0.52 127.94 0.52C127.88 0.45 127.73 0.41 127.73 0.41L127.73 0.28L132.8 0.28C132.92 0.28 132.99 0.21 132.99 0.21C133.06 0.15 133.1 0 133.1 0L133.23 0L133.23 1.5L133.1 1.5C133.06 1.35 132.99 1.29 132.99 1.29C132.92 1.23 132.8 1.23 132.8 1.23L129.24 1.23L129.24 2.6L131.55 2.6C131.67 2.6 131.74 2.55 131.74 2.55C131.81 2.49 131.85 2.33 131.85 2.33L131.98 2.33L131.98 3.8L131.85 3.8C131.81 3.65 131.74 3.59 131.74 3.59ZM148.86 5.11L145.21 5.11L145.21 3.53L147.51 3.53C147.51 3.53 147.64 3.53 147.7 3.59C147.7 3.59 147.77 3.65 147.81 3.8L147.95 3.8L147.95 2.33L147.81 2.33C147.81 2.33 147.77 2.49 147.7 2.55C147.7 2.55 147.64 2.6 147.51 2.6L145.21 2.6L145.21 1.23L148.76 1.23C148.76 1.23 148.89 1.23 148.95 1.29C148.95 1.29 149.02 1.35 149.06 1.5L149.2 1.5L149.2 0L149.06 0C149.06 0 149.02 0.15 148.95 0.21C148.95 0.21 148.89 0.28 148.76 0.28L143.7 0.28L143.7 0.41C143.7 0.41 143.85 0.45 143.91 0.52C143.91 0.52 143.96 0.59 143.96 0.72L143.96 5.62C143.96 5.62 143.96 5.75 143.91 5.82C143.91 5.82 143.85 5.89 143.7 5.93L143.7 6.07L148.86 6.07C148.86 6.07 148.99 6.07 149.05 6.13C149.05 6.13 149.12 6.19 149.16 6.34L149.3 6.34L149.3 4.84L149.16 4.84C149.16 4.84 149.12 4.99 149.05 5.05C149.05 5.05 148.99 5.11 148.86 5.11ZM213.62 1.5C213.58 1.34 213.51 1.29 213.51 1.29C213.45 1.23 213.32 1.23 213.32 1.23L211.56 1.23L211.56 5.62C211.56 5.75 211.61 5.82 211.61 5.82C211.67 5.89 211.82 5.93 211.82 5.93L211.82 6.07L210.05 6.07L210.05 5.93C210.2 5.89 210.26 5.82 210.26 5.82C210.31 5.75 210.31 5.62 210.31 5.62L210.31 1.23L208.55 1.23C208.42 1.23 208.36 1.29 208.36 1.29C208.29 1.34 208.25 1.5 208.25 1.5L208.12 1.5L208.12 0L208.25 0C208.29 0.16 208.36 0.22 208.36 0.22C208.42 0.28 208.55 0.28 208.55 0.28L213.32 0.28C213.45 0.28 213.51 0.22 213.51 0.22C213.58 0.16 213.62 0 213.62 0L213.76 0L213.76 1.5L213.62 1.5ZM3.67 0.29C4.14 0.4 4.84 0.7 4.84 0.7C5.09 0.8 5.14 0.8 5.14 0.8C5.23 0.8 5.34 0.7 5.34 0.7L5.46 0.76L4.78 2.13L4.67 2.06L4.67 1.99C4.67 1.85 4.43 1.68 4.43 1.68C3.69 1.15 2.69 1.15 2.69 1.15C2.25 1.15 1.91 1.26 1.91 1.26C1.66 1.35 1.51 1.52 1.51 1.52C1.36 1.69 1.36 1.89 1.36 1.89C1.36 2.21 1.75 2.33 1.75 2.33C1.95 2.39 2.6 2.46 2.6 2.46L3.26 2.53C3.84 2.59 4.2 2.7 4.2 2.7C4.56 2.81 4.84 3.01 4.84 3.01C5.12 3.22 5.29 3.56 5.29 3.56C5.45 3.9 5.45 4.28 5.45 4.28C5.45 4.9 5.07 5.37 5.07 5.37C4.72 5.8 3.98 6.01 3.98 6.01C3.43 6.17 2.8 6.17 2.8 6.17C1.67 6.17 0.57 5.62 0.57 5.62C0.34 5.51 0.29 5.51 0.29 5.51C0.24 5.51 0.12 5.6 0.12 5.6L0 5.54L0.62 4.12L0.74 4.17L0.74 4.23C0.74 4.42 0.92 4.58 0.92 4.58C1.19 4.83 1.75 5.01 1.75 5.01C2.32 5.18 2.83 5.18 2.83 5.18C3.38 5.18 3.77 4.99 3.77 4.99C3.99 4.89 4.12 4.71 4.12 4.71C4.25 4.54 4.25 4.34 4.25 4.34C4.25 4.06 3.94 3.93 3.94 3.93C3.73 3.85 3.09 3.78 3.09 3.78L2.45 3.71C1.8 3.64 1.53 3.58 1.53 3.58C1.27 3.52 1 3.38 1 3.38C0.62 3.19 0.4 2.81 0.4 2.81C0.21 2.46 0.21 2.02 0.21 2.02C0.21 1.29 0.7 0.81 0.7 0.81C1.35 0.17 2.65 0.17 2.65 0.17C3.2 0.17 3.67 0.29 3.67 0.29ZM33.24 3.19C33.24 3.19 33.24 2.24 33.9 1.66C33.9 1.66 34.49 1.15 35.38 1.15C35.38 1.15 35.82 1.15 36.31 1.29C36.31 1.29 36.8 1.43 37.05 1.62C37.05 1.62 37.17 1.71 37.2 1.78C37.2 1.78 37.24 1.84 37.24 1.98L37.36 2.04L38.03 0.65L37.91 0.59C37.91 0.59 37.79 0.69 37.71 0.69C37.71 0.69 37.59 0.69 37.3 0.57C37.3 0.57 36.75 0.36 36.32 0.27C36.32 0.27 35.89 0.17 35.4 0.17C35.4 0.17 33.87 0.17 32.95 0.95C32.95 0.95 31.97 1.78 31.97 3.17C31.97 3.17 31.97 4.66 33.07 5.5C33.07 5.5 33.94 6.17 35.32 6.17C35.32 6.17 36.84 6.17 38.46 5.23L38.46 5.12C38.46 5.12 38.3 5.08 38.24 5.01C38.24 5.01 38.19 4.94 38.19 4.81L38.19 3.62C38.19 3.62 38.19 3.49 38.25 3.42C38.25 3.42 38.31 3.36 38.46 3.31L38.46 3.18L35.76 3.18C35.76 3.18 35.63 3.18 35.56 3.12C35.56 3.12 35.5 3.06 35.46 2.91L35.32 2.91L35.32 4.26L35.46 4.26C35.46 4.26 35.5 4.1 35.56 4.04C35.56 4.04 35.63 3.98 35.76 3.98L37.16 3.98L37.16 4.77C37.16 4.77 36.83 4.96 36.37 5.07C36.37 5.07 35.91 5.18 35.44 5.18C35.44 5.18 34.47 5.18 33.88 4.67C33.88 4.67 33.24 4.1 33.24 3.19ZM88.25 0.69C88.25 0.69 88.13 0.69 87.84 0.57C87.84 0.57 87.29 0.36 86.86 0.27C86.86 0.27 86.43 0.17 85.94 0.17C85.94 0.17 84.41 0.17 83.49 0.95C83.49 0.95 82.51 1.78 82.51 3.17C82.51 3.17 82.51 4.66 83.61 5.5C83.61 5.5 84.48 6.17 85.86 6.17C85.86 6.17 87.38 6.17 89 5.23L89 5.12C89 5.12 88.84 5.08 88.78 5.01C88.78 5.01 88.73 4.94 88.73 4.81L88.73 3.62C88.73 3.62 88.73 3.49 88.79 3.42C88.79 3.42 88.85 3.36 89 3.31L89 3.18L86.3 3.18C86.3 3.18 86.17 3.18 86.1 3.12C86.1 3.12 86.04 3.06 86 2.91L85.86 2.91L85.86 4.26L86 4.26C86 4.26 86.04 4.1 86.1 4.04C86.1 4.04 86.17 3.98 86.3 3.98L87.7 3.98L87.7 4.77C87.7 4.77 87.37 4.96 86.91 5.07C86.91 5.07 86.45 5.18 85.98 5.18C85.98 5.18 85.01 5.18 84.42 4.67C84.42 4.67 83.78 4.1 83.78 3.19C83.78 3.19 83.78 2.24 84.44 1.66C84.44 1.66 85.03 1.15 85.92 1.15C85.92 1.15 86.36 1.15 86.85 1.29C86.85 1.29 87.34 1.43 87.59 1.62C87.59 1.62 87.71 1.71 87.74 1.78C87.74 1.78 87.78 1.84 87.78 1.98L87.9 2.04L88.57 0.65L88.45 0.59C88.45 0.59 88.33 0.69 88.25 0.69ZM165.27 3.42C165.21 3.49 165.21 3.62 165.21 3.62L165.21 4.81C165.21 4.94 165.26 5.01 165.26 5.01C165.32 5.08 165.48 5.12 165.48 5.12L165.48 5.23C163.86 6.17 162.34 6.17 162.34 6.17C160.96 6.17 160.09 5.5 160.09 5.5C158.99 4.66 158.99 3.17 158.99 3.17C158.99 1.78 159.97 0.95 159.97 0.95C160.89 0.17 162.42 0.17 162.42 0.17C162.91 0.17 163.34 0.27 163.34 0.27C163.77 0.36 164.32 0.57 164.32 0.57C164.61 0.69 164.73 0.69 164.73 0.69C164.81 0.69 164.93 0.59 164.93 0.59L165.05 0.65L164.38 2.04L164.26 1.98C164.26 1.84 164.22 1.78 164.22 1.78C164.19 1.71 164.07 1.62 164.07 1.62C163.82 1.43 163.33 1.29 163.33 1.29C162.84 1.15 162.4 1.15 162.4 1.15C161.51 1.15 160.92 1.66 160.92 1.66C160.26 2.24 160.26 3.19 160.26 3.19C160.26 4.1 160.9 4.67 160.9 4.67C161.49 5.18 162.46 5.18 162.46 5.18C162.93 5.18 163.39 5.07 163.39 5.07C163.85 4.96 164.18 4.77 164.18 4.77L164.18 3.98L162.78 3.98C162.65 3.98 162.58 4.04 162.58 4.04C162.52 4.1 162.48 4.26 162.48 4.26L162.34 4.26L162.34 2.91L162.48 2.91C162.52 3.06 162.58 3.12 162.58 3.12C162.65 3.18 162.78 3.18 162.78 3.18L165.48 3.18L165.48 3.31C165.33 3.36 165.27 3.42 165.27 3.42ZM184.03 1.05L183.92 0.98C183.92 0.98 183.81 1.09 183.73 1.09C183.73 1.09 183.66 1.09 183.31 0.89C183.31 0.89 182.59 0.46 182.1 0.32C182.1 0.32 181.62 0.17 180.94 0.17C180.94 0.17 179.11 0.17 178.2 1.34C178.2 1.34 177.6 2.12 177.6 3.17C177.6 3.17 177.6 3.94 177.93 4.58C177.93 4.58 178.22 5.14 178.73 5.52C178.73 5.52 179.59 6.17 180.94 6.17C180.94 6.17 181.61 6.17 182.1 6.02C182.1 6.02 182.59 5.88 183.31 5.46C183.31 5.46 183.66 5.25 183.73 5.25C183.73 5.25 183.81 5.25 183.92 5.36L184.03 5.29L183.24 4.08L183.13 4.16C183.13 4.16 183.14 4.22 183.14 4.27C183.14 4.27 183.14 4.39 183.03 4.5C183.03 4.5 182.93 4.61 182.66 4.76C182.66 4.76 181.92 5.18 181.1 5.18C181.1 5.18 180.12 5.18 179.54 4.69C179.54 4.69 178.86 4.11 178.86 3.17C178.86 3.17 178.86 2.23 179.54 1.65C179.54 1.65 180.12 1.15 181.1 1.15C181.1 1.15 181.92 1.15 182.66 1.58C182.66 1.58 182.93 1.73 183.03 1.84C183.03 1.84 183.14 1.95 183.14 2.07C183.14 2.07 183.14 2.12 183.13 2.18L183.24 2.26L184.03 1.05ZM186.21 1.58C186.21 1.58 185.78 2.3 185.78 3.17C185.78 3.17 185.78 3.76 185.99 4.3C185.99 4.3 186.23 4.91 186.7 5.35C186.7 5.35 187.57 6.17 189.04 6.17C189.04 6.17 191.01 6.17 191.87 4.76C191.87 4.76 192.31 4.04 192.31 3.21C192.31 3.21 192.31 1.85 191.39 0.99C191.39 0.99 190.52 0.17 189.03 0.17C189.03 0.17 187.05 0.2 186.21 1.58ZM9.11 5.93C9.11 5.93 8.97 5.89 8.91 5.82C8.91 5.82 8.85 5.75 8.85 5.63L8.85 3.54L12.12 3.54L12.12 5.63C12.12 5.63 12.12 5.75 12.06 5.82C12.06 5.82 12 5.89 11.86 5.93L11.86 6.07L13.63 6.07L13.63 5.93C13.63 5.93 13.48 5.89 13.42 5.82C13.42 5.82 13.37 5.75 13.37 5.63L13.37 0.72C13.37 0.72 13.37 0.59 13.42 0.52C13.42 0.52 13.48 0.45 13.63 0.41L13.63 0.28L11.86 0.28L11.86 0.41C11.86 0.41 12.01 0.45 12.07 0.52C12.07 0.52 12.12 0.59 12.12 0.72L12.12 2.58L8.85 2.58L8.85 0.72C8.85 0.72 8.85 0.59 8.9 0.52C8.9 0.52 8.96 0.45 9.11 0.41L9.11 0.28L7.34 0.28L7.34 0.41C7.34 0.41 7.49 0.45 7.55 0.52C7.55 0.52 7.61 0.59 7.61 0.72L7.61 5.63C7.61 5.63 7.61 5.75 7.55 5.82C7.55 5.82 7.49 5.89 7.34 5.93L7.34 6.07L9.11 6.07L9.11 5.93ZM16.88 5.4L17.26 4.59L19.85 4.59L20.24 5.4C20.24 5.4 20.32 5.58 20.32 5.67C20.32 5.67 20.32 5.88 20.05 5.93L20.05 6.07L22.14 6.07L22.14 5.93C22.14 5.93 21.96 5.9 21.86 5.79C21.86 5.79 21.75 5.69 21.62 5.4L19.45 0.94C19.45 0.94 19.37 0.78 19.37 0.66C19.37 0.66 19.37 0.48 19.62 0.41L19.62 0.28L17.6 0.28L17.6 0.41C17.6 0.41 17.84 0.5 17.84 0.69C17.84 0.69 17.84 0.82 17.74 1.03L15.65 5.48C15.65 5.48 15.54 5.73 15.45 5.81C15.45 5.81 15.36 5.9 15.2 5.93L15.2 6.07L17.08 6.07L17.08 5.93C17.08 5.93 16.8 5.86 16.8 5.67C16.8 5.67 16.8 5.57 16.88 5.4ZM23.64 6.07L25.31 6.07L25.31 5.93C25.31 5.93 25.16 5.89 25.11 5.82C25.11 5.82 25.05 5.75 25.05 5.62L25.05 2.1L28.23 5.45C28.23 5.45 28.44 5.66 28.44 5.75C28.44 5.75 28.44 5.89 28.26 5.93L28.26 6.07L30.06 6.07L30.06 5.93C30.06 5.93 29.91 5.89 29.85 5.82C29.85 5.82 29.79 5.75 29.79 5.62L29.79 0.72C29.79 0.72 29.79 0.59 29.85 0.52C29.85 0.52 29.91 0.45 30.06 0.41L30.06 0.28L28.38 0.28L28.38 0.41C28.38 0.41 28.53 0.45 28.59 0.52C28.59 0.52 28.65 0.59 28.65 0.72L28.65 4.15L25.51 0.83C25.51 0.83 25.4 0.71 25.4 0.61C25.4 0.61 25.4 0.46 25.58 0.41L25.58 0.28L23.64 0.28L23.64 0.41C23.64 0.41 23.79 0.45 23.85 0.52C23.85 0.52 23.91 0.59 23.91 0.72L23.91 5.62C23.91 5.62 23.91 5.75 23.85 5.82C23.85 5.82 23.79 5.89 23.64 5.93L23.64 6.07ZM46.47 0.72C46.47 0.72 46.47 0.59 46.53 0.52C46.53 0.52 46.59 0.45 46.74 0.41L46.74 0.28L44.97 0.28L44.97 0.41C44.97 0.41 45.12 0.45 45.17 0.52C45.17 0.52 45.23 0.59 45.23 0.72L45.23 2.58L41.95 2.58L41.95 0.72C41.95 0.72 41.95 0.59 42.01 0.52C42.01 0.52 42.07 0.45 42.22 0.41L42.22 0.28L40.45 0.28L40.45 0.41C40.45 0.41 40.6 0.45 40.65 0.52C40.65 0.52 40.71 0.59 40.71 0.72L40.71 5.63C40.71 5.63 40.71 5.75 40.65 5.82C40.65 5.82 40.6 5.89 40.45 5.93L40.45 6.07L42.22 6.07L42.22 5.93C42.22 5.93 42.07 5.89 42.01 5.82C42.01 5.82 41.95 5.75 41.95 5.63L41.95 3.54L45.23 3.54L45.23 5.63C45.23 5.63 45.23 5.75 45.17 5.82C45.17 5.82 45.11 5.89 44.97 5.93L44.97 6.07L46.74 6.07L46.74 5.93C46.74 5.93 46.59 5.89 46.53 5.82C46.53 5.82 46.47 5.75 46.47 5.63L46.47 0.72ZM49.91 5.67C49.91 5.67 49.91 5.57 49.99 5.4L50.37 4.59L52.95 4.59L53.35 5.4C53.35 5.4 53.43 5.58 53.43 5.67C53.43 5.67 53.43 5.88 53.15 5.93L53.15 6.07L55.25 6.07L55.25 5.93C55.25 5.93 55.07 5.9 54.97 5.79C54.97 5.79 54.86 5.69 54.72 5.4L52.56 0.94C52.56 0.94 52.48 0.78 52.48 0.66C52.48 0.66 52.48 0.48 52.73 0.41L52.73 0.28L50.71 0.28L50.71 0.41C50.71 0.41 50.95 0.5 50.95 0.69C50.95 0.69 50.95 0.82 50.85 1.03L48.76 5.48C48.76 5.48 48.65 5.73 48.56 5.81C48.56 5.81 48.47 5.9 48.31 5.93L48.31 6.07L50.19 6.07L50.19 5.93C50.19 5.93 49.91 5.86 49.91 5.67ZM58.53 5.93L58.53 6.07L56.75 6.07L56.75 5.93C56.9 5.89 56.96 5.82 56.96 5.82C57.02 5.75 57.02 5.62 57.02 5.62L57.02 0.72C57.02 0.59 56.96 0.52 56.96 0.52C56.9 0.45 56.75 0.41 56.75 0.41L56.75 0.28L58.53 0.28L58.53 0.41C58.38 0.45 58.32 0.52 58.32 0.52C58.26 0.59 58.26 0.72 58.26 0.72L58.26 5.62C58.26 5.75 58.32 5.82 58.32 5.82C58.38 5.89 58.53 5.93 58.53 5.93ZM67.21 5.68C67.21 5.89 67.48 5.93 67.48 5.93L67.48 6.07L65.52 6.07L65.52 5.93C65.78 5.89 65.78 5.67 65.78 5.67C65.78 5.59 65.66 5.32 65.66 5.32L63.69 0.98C63.51 0.6 63.44 0.52 63.44 0.52C63.37 0.44 63.19 0.41 63.19 0.41L63.19 0.28L65.21 0.28L65.21 0.41C64.93 0.47 64.93 0.65 64.93 0.65C64.93 0.77 65.03 0.98 65.03 0.98L66.53 4.39L68.04 0.98C68.14 0.77 68.14 0.65 68.14 0.65C68.14 0.47 67.86 0.41 67.86 0.41L67.86 0.28L69.81 0.28L69.81 0.41C69.63 0.44 69.55 0.52 69.55 0.52C69.48 0.6 69.31 0.98 69.31 0.98L67.34 5.32C67.21 5.59 67.21 5.68 67.21 5.68ZM79.09 5.62L79.09 0.72C79.09 0.59 79.03 0.52 79.03 0.52C78.98 0.45 78.83 0.41 78.83 0.41L78.83 0.28L80.6 0.28L80.6 0.41C80.45 0.45 80.39 0.52 80.39 0.52C80.33 0.59 80.33 0.72 80.33 0.72L80.33 5.62C80.33 5.75 80.39 5.82 80.39 5.82C80.45 5.89 80.6 5.93 80.6 5.93L80.6 6.07L78.83 6.07L78.83 5.93C78.98 5.89 79.03 5.82 79.03 5.82C79.09 5.75 79.09 5.62 79.09 5.62ZM91.19 5.82C91.19 5.82 91.14 5.89 90.99 5.93L90.99 6.07L92.76 6.07L92.76 5.93C92.76 5.93 92.62 5.89 92.55 5.82C92.55 5.82 92.49 5.75 92.49 5.62L92.49 0.72C92.49 0.72 92.49 0.59 92.55 0.52C92.55 0.52 92.61 0.45 92.76 0.41L92.76 0.28L90.99 0.28L90.99 0.41C90.99 0.41 91.14 0.45 91.19 0.52C91.19 0.52 91.25 0.59 91.25 0.72L91.25 5.62C91.25 5.62 91.25 5.75 91.19 5.82ZM102.97 4.15L99.83 0.83C99.83 0.83 99.72 0.71 99.72 0.61C99.72 0.61 99.72 0.46 99.89 0.41L99.89 0.28L97.96 0.28L97.96 0.41C97.96 0.41 98.11 0.45 98.17 0.52C98.17 0.52 98.23 0.59 98.23 0.72L98.23 5.62C98.23 5.62 98.23 5.75 98.17 5.82C98.17 5.82 98.11 5.89 97.96 5.93L97.96 6.07L99.63 6.07L99.63 5.93C99.63 5.93 99.48 5.89 99.42 5.82C99.42 5.82 99.37 5.75 99.37 5.62L99.37 2.1L102.55 5.45C102.55 5.45 102.76 5.66 102.76 5.75C102.76 5.75 102.76 5.89 102.58 5.93L102.58 6.07L104.37 6.07L104.37 5.93C104.37 5.93 104.22 5.89 104.16 5.82C104.16 5.82 104.11 5.75 104.11 5.62L104.11 0.72C104.11 0.72 104.11 0.59 104.16 0.52C104.16 0.52 104.22 0.45 104.37 0.41L104.37 0.28L102.7 0.28L102.7 0.41C102.7 0.41 102.85 0.45 102.91 0.52C102.91 0.52 102.97 0.59 102.97 0.72L102.97 4.15ZM121.47 0.66C121.47 0.47 121.17 0.41 121.17 0.41L121.17 0.28L123.12 0.28L123.12 0.41C122.92 0.47 122.84 0.56 122.84 0.56C122.76 0.66 122.63 0.99 122.63 0.99L121 5.26C120.88 5.57 120.88 5.67 120.88 5.67C120.88 5.88 121.18 5.93 121.18 5.93L121.18 6.07L119.32 6.07L119.32 5.93C119.62 5.88 119.62 5.65 119.62 5.65C119.62 5.57 119.49 5.26 119.49 5.26L118.23 1.99L116.93 5.33C116.82 5.59 116.82 5.66 116.82 5.66C116.82 5.85 117.13 5.93 117.13 5.93L117.13 6.07L115.3 6.07L115.3 5.93C115.58 5.88 115.58 5.64 115.58 5.64C115.58 5.58 115.46 5.26 115.46 5.26L113.83 0.99C113.71 0.67 113.62 0.56 113.62 0.56C113.52 0.45 113.33 0.41 113.33 0.41L113.33 0.28L115.3 0.28L115.3 0.41C115.04 0.47 115.04 0.66 115.04 0.66C115.04 0.76 115.11 0.94 115.11 0.94L116.23 4L117.45 0.92C117.53 0.73 117.53 0.66 117.53 0.66C117.53 0.47 117.25 0.41 117.25 0.41L117.25 0.28L119.32 0.28L119.32 0.41C119.03 0.49 119.03 0.69 119.03 0.69C119.03 0.76 119.1 0.94 119.1 0.94L120.26 4.02L121.38 0.99C121.47 0.77 121.47 0.66 121.47 0.66ZM136.64 5.62C136.64 5.75 136.7 5.82 136.7 5.82C136.76 5.89 136.91 5.93 136.91 5.93L136.91 6.07L135.24 6.07L135.24 5.93C135.39 5.89 135.45 5.82 135.45 5.82C135.5 5.75 135.5 5.62 135.5 5.62L135.5 0.72C135.5 0.59 135.45 0.52 135.45 0.52C135.39 0.45 135.24 0.41 135.24 0.41L135.24 0.28L137.17 0.28L137.17 0.41C136.99 0.46 136.99 0.61 136.99 0.61C136.99 0.71 137.11 0.83 137.11 0.83L140.25 4.15L140.25 0.72C140.25 0.59 140.19 0.52 140.19 0.52C140.13 0.45 139.98 0.41 139.98 0.41L139.98 0.28L141.65 0.28L141.65 0.41C141.5 0.45 141.44 0.52 141.44 0.52C141.38 0.59 141.38 0.72 141.38 0.72L141.38 5.62C141.38 5.75 141.44 5.82 141.44 5.82C141.5 5.89 141.65 5.93 141.65 5.93L141.65 6.07L139.86 6.07L139.86 5.93C140.03 5.89 140.03 5.75 140.03 5.75C140.03 5.66 139.83 5.45 139.83 5.45L136.64 2.1L136.64 5.62ZM152.98 5.93C152.98 5.93 152.83 5.89 152.77 5.82C152.77 5.82 152.71 5.75 152.71 5.63L152.71 3.7L154.23 3.7L155.38 5.41C155.38 5.41 155.57 5.7 155.57 5.78C155.57 5.78 155.57 5.9 155.36 5.93L155.36 6.07L157.42 6.07L157.42 5.93C157.42 5.93 157.22 5.92 157.09 5.8C157.09 5.8 156.95 5.68 156.66 5.26L155.56 3.66C155.56 3.66 157.1 3.42 157.1 2C157.1 2 157.1 1.58 156.95 1.22C156.95 1.22 156.78 0.84 156.46 0.62C156.46 0.62 156.17 0.43 155.79 0.35C155.79 0.35 155.41 0.28 154.76 0.28L151.2 0.28L151.2 0.41C151.2 0.41 151.35 0.45 151.41 0.52C151.41 0.52 151.47 0.59 151.47 0.72L151.47 5.63C151.47 5.63 151.47 5.75 151.41 5.82C151.41 5.82 151.35 5.89 151.2 5.93L151.2 6.07L152.98 6.07L152.98 5.93ZM170.89 5.93C170.89 5.93 170.74 5.89 170.68 5.82C170.68 5.82 170.62 5.75 170.62 5.62L170.62 3.64L172.45 1.01C172.45 1.01 172.69 0.67 172.83 0.55C172.83 0.55 172.96 0.44 173.15 0.41L173.15 0.28L170.95 0.28L170.95 0.41C170.95 0.41 171.08 0.43 171.15 0.5C171.15 0.5 171.23 0.57 171.23 0.67C171.23 0.67 171.23 0.76 171.06 1.01L170 2.56L168.98 1.01C168.98 1.01 168.81 0.75 168.81 0.67C168.81 0.67 168.81 0.46 169.09 0.41L169.09 0.28L166.84 0.28L166.84 0.41C166.84 0.41 167.03 0.44 167.16 0.55C167.16 0.55 167.3 0.67 167.54 1.01L169.37 3.64L169.37 5.62C169.37 5.62 169.37 5.75 169.31 5.82C169.31 5.82 169.25 5.89 169.1 5.93L169.1 6.07L170.89 6.07L170.89 5.93ZM201.51 6.07L201.51 5.93C201.66 5.89 201.72 5.82 201.72 5.82C201.78 5.75 201.78 5.62 201.78 5.62L201.78 0.72C201.78 0.59 201.72 0.52 201.72 0.52C201.66 0.45 201.51 0.41 201.51 0.41L201.51 0.28L203.28 0.28L203.28 0.41C203.13 0.45 203.08 0.52 203.08 0.52C203.02 0.59 203.02 0.72 203.02 0.72L203.02 5.11L206.51 5.11C206.64 5.11 206.71 5.05 206.71 5.05C206.77 4.99 206.82 4.84 206.82 4.84L206.95 4.84L206.95 6.34L206.82 6.34C206.77 6.19 206.71 6.13 206.71 6.13C206.64 6.07 206.51 6.07 206.51 6.07L201.51 6.07ZM220.11 0.52C220.11 0.52 219.56 0.28 218.52 0.28L215.35 0.28L215.35 0.41C215.35 0.41 215.5 0.45 215.55 0.52C215.55 0.52 215.61 0.59 215.61 0.72L215.61 5.62C215.61 5.62 215.61 5.75 215.55 5.82C215.55 5.82 215.5 5.89 215.35 5.93L215.35 6.07L218.52 6.07C218.52 6.07 219.3 6.07 219.81 5.92C219.81 5.92 220.32 5.78 220.7 5.45C220.7 5.45 221.6 4.67 221.6 3.17C221.6 3.17 221.6 2.32 221.3 1.68C221.3 1.68 220.91 0.87 220.11 0.52ZM190.4 4.69C190.4 4.69 189.87 5.18 189.05 5.18C189.05 5.18 188.22 5.18 187.68 4.69C187.68 4.69 187.04 4.11 187.04 3.17C187.04 3.17 187.04 2.23 187.68 1.65C187.68 1.65 188.22 1.15 189.04 1.15C189.04 1.15 189.86 1.16 190.4 1.65C190.4 1.65 191.04 2.21 191.04 3.19C191.04 3.19 191.04 3.6 190.89 3.98C190.89 3.98 190.72 4.4 190.4 4.69ZM155.23 2.72C155.23 2.72 155.05 2.75 154.63 2.75L152.71 2.75L152.71 1.23L154.63 1.23C154.63 1.23 155.06 1.23 155.23 1.25C155.23 1.25 155.4 1.28 155.55 1.36C155.55 1.36 155.86 1.54 155.86 1.99C155.86 1.99 155.86 2.44 155.55 2.62C155.55 2.62 155.4 2.7 155.23 2.72ZM218.41 1.23C218.41 1.23 218.98 1.23 219.32 1.35C219.32 1.35 219.66 1.46 219.9 1.74C219.9 1.74 220.34 2.24 220.34 3.17C220.34 3.17 220.34 4.46 219.53 4.9C219.53 4.9 219.16 5.11 218.41 5.11L216.85 5.11L216.85 1.23L218.41 1.23ZM17.63 3.8L18.57 1.74L19.49 3.8L17.63 3.8ZM52.6 3.8L50.74 3.8L51.68 1.74L52.6 3.8ZM194.54 4.98C194.54 4.98 194.34 5.18 194.34 5.47C194.34 5.47 194.34 5.76 194.54 5.96C194.54 5.96 194.74 6.17 195.03 6.17C195.03 6.17 195.3 6.17 195.51 5.96C195.51 5.96 195.71 5.76 195.71 5.48C195.71 5.48 195.71 5.18 195.51 4.98C195.51 4.98 195.31 4.78 195.03 4.78C195.03 4.78 194.74 4.78 194.54 4.98ZM198.15 4.96C198.15 4.96 197.98 5.15 197.98 5.46C197.98 5.46 197.98 5.78 198.15 5.97C198.15 5.97 198.32 6.17 198.59 6.17C198.59 6.17 198.68 6.17 198.88 6.12C198.88 6.12 198.82 6.47 198.67 6.68C198.67 6.68 198.52 6.9 198.18 7.13L198.38 7.4C198.38 7.4 199.35 6.7 199.35 5.77C199.35 5.77 199.35 5.38 199.17 5.09C199.17 5.09 198.97 4.78 198.6 4.78C198.6 4.78 198.32 4.78 198.15 4.96ZM223.63 5.47C223.63 5.18 223.83 4.98 223.83 4.98C224.03 4.78 224.32 4.78 224.32 4.78C224.6 4.78 224.8 4.98 224.8 4.98C225 5.18 225 5.48 225 5.48C225 5.76 224.8 5.96 224.8 5.96C224.6 6.17 224.32 6.17 224.32 6.17C224.03 6.17 223.83 5.96 223.83 5.96C223.63 5.76 223.63 5.47 223.63 5.47Z"></path></g></svg>